#!OML:ASF G:\JayActor3\Patient Classification 1\Patient 1\Session 5\male.ASF
:FULLY-SPECIFIED
:DEGREES
392
root 44.7908 15.3185 -5.82487 1.66682 -89.4086 16.8269
lowerback 39.9607 0.0685556 0.858265
upperback 9.32989 -1.01949 -1.78402
thorax -8.99693 -0.924292 -1.8606
lowerneck 4.02212 0.362312 1.14153
upperneck -30.1767 0.587696 3.32522
head -10.2694 -0.75414 1.02658
rclavicle -1.39149e-014 -7.35503e-015
rhumerus -28.9364 1.67095 -88.9118
rradius 43.9949
rwrist -3.62002
rhand -19.6469 -8.30868
rfingers 7.12502
rthumb 6.68069 -38.1833
lclavicle -1.39149e-014 -7.35503e-015
lhumerus -26.9879 -0.756691 82.3425
lradius 40.6668
lwrist 25.9231
lhand -18.8359 13.2029
lfingers 7.12502
lthumb 7.46358 43.0512
rfemur -51.3367 -2.61728 20.2362
rtibia 81.935
rfoot 11.647 -11.0733
rtoes -11.2814
lfemur -73.0537 11.6465 -29.8314
ltibia 59.3608
lfoot 16.6348 -4.06204
ltoes -24.9708
393
root 44.6763 15.3189 -5.79058 -3.5785 -89.4913 22.051
lowerback 39.9541 0.0888198 0.803778
upperback 9.31901 -1.01795 -1.79774
thorax -9.00691 -0.923225 -1.84745
lowerneck 4.02628 0.365805 1.14012
upperneck -30.1333 0.597848 3.3407
head -10.2541 -0.749037 1.03043
rclavicle -5.96354e-015 1.0138e-014
rhumerus -28.9902 1.57608 -88.8804
rradius 43.8949
rwrist -3.57427
rhand -19.6141 -8.3236
rfingers 7.12502
rthumb 6.7124 -38.1972
lclavicle -5.96354e-015 1.0138e-014
lhumerus -26.9475 -0.774562 82.3011
lradius 40.8115
lwrist 25.9356
lhand -19.0278 13.1074
lfingers 7.12502
lthumb 7.27835 42.9622
rfemur -50.9962 -2.54253 19.9273
rtibia 81.9548
rfoot 12.3933 -11.049
rtoes -10.9773
lfemur -73.039 11.6373 -29.762
ltibia 60.1173
lfoot 16.2942 -4.28792
ltoes -25.4531
394
root 44.5613 15.3198 -5.75635 -12.6026 -89.5613 31.0532
lowerback 39.9409 0.114272 0.732704
upperback 9.30535 -1.01625 -1.81358
thorax -9.01778 -0.92174 -1.82805
lowerneck 4.02312 0.364905 1.13996
upperneck -30.0708 0.603108 3.36062
head -10.2302 -0.745945 1.03568
rclavicle 1.66979e-014 3.51849e-014
rhumerus -29.0513 1.48032 -88.8482
rradius 43.801
rwrist -3.52982
rhand -19.5666 -8.335
rfingers 7.12502
rthumb 6.75817 -38.2071
lclavicle 1.66979e-014 3.51849e-014
lhumerus -26.9173 -0.802119 82.2675
lradius 40.9494
lwrist 25.9546
lhand -19.1946 13.0326
lfingers 7.12502
lthumb 7.11735 42.8929
rfemur -50.7001 -2.46808 19.5873
rtibia 82.0209
rfoot 13.2483 -11.0008
rtoes -10.5976
lfemur -72.9878 11.6314 -29.7237
ltibia 60.833
lfoot 15.9301 -4.52671
ltoes -26.0241
395
root 44.4465 15.3208 -5.72246 -25.6146 -89.6019 44.0463
lowerback 39.9236 0.142767 0.647537
upperback 9.28788 -1.01554 -1.82902
thorax -9.03152 -0.920347 -1.80052
lowerneck 4.00484 0.359971 1.14609
upperneck -29.9889 0.60203 3.37721
head -10.196 -0.745298 1.03877
rclavicle 1.15295e-014 2.36554e-014
rhumerus -29.1108 1.39566 -88.8109
rradius 43.7115
rwrist -3.49702
rhand -19.5086 -8.34432
rfingers 7.12502
rthumb 6.81424 -38.2147
lclavicle 1.15295e-014 2.36554e-014
lhumerus -26.8889 -0.834645 82.2426
lradius 41.0748
lwrist 25.9694
lhand -19.3227 12.9671
lfingers 7.12502
lthumb 6.99368 42.8316
rfemur -50.4703 -2.39684 19.2221
rtibia 82.1505
rfoot 14.2061 -10.9517
rtoes -9.98177
lfemur -72.9045 11.613 -29.6988
ltibia 61.5054
lfoot 15.5484 -4.78539
ltoes -26.6596
396
root 44.3323 15.3217 -5.68894 -40.8158 -89.6061 59.232
lowerback 39.901 0.17358 0.553945
upperback 9.26805 -1.01464 -1.84419
thorax -9.04605 -0.918586 -1.76844
lowerneck 3.97813 0.354136 1.15593
upperneck -29.8996 0.59815 3.38748
head -10.1574 -0.74531 1.03904
rclavicle 2.0276e-014 1.66979e-014
rhumerus -29.1731 1.30871 -88.7708
rradius 43.6314
rwrist -3.45875
rhand -19.437 -8.3534
rfingers 7.12502
rthumb 6.88335 -38.2215
lclavicle 2.0276e-014 1.66979e-014
lhumerus -26.8602 -0.876226 82.2245
lradius 41.1926
lwrist 25.9773
lhand -19.402 12.9172
lfingers 7.12502
lthumb 6.91706 42.7842
rfemur -50.3223 -2.32643 18.8387
rtibia 82.3558
rfoot 15.2709 -10.9181
rtoes -9.18698
lfemur -72.7909 11.5775 -29.6711
ltibia 62.133
lfoot 15.1531 -5.0614
ltoes -27.2992
397
root 44.219 15.3226 -5.65574 -54.3945 -89.5782 72.7992
lowerback 39.8741 0.203377 0.464961
upperback 9.2478 -1.01262 -1.8581
thorax -9.05961 -0.916207 -1.73791
lowerneck 3.93629 0.34927 1.1685
upperneck -29.8037 0.592813 3.38838
head -10.1135 -0.744994 1.03545
rclavicle -2.78299e-015 -3.97569e-016
rhumerus -29.239 1.22282 -88.7278
rradius 43.5719
rwrist -3.42555
rhand -19.3591 -8.36345
rfingers 7.12502
rthumb 6.95856 -38.2291
lclavicle -2.78299e-015 -3.97569e-016
lhumerus -26.8253 -0.92472 82.2117
lradius 41.303
lwrist 25.9731
lhand -19.4427 12.8374
lfingers 7.12502
lthumb 6.87784 42.7057
rfemur -50.2688 -2.26017 18.4513
rtibia 82.6485
rfoot 16.4355 -10.9208
rtoes -8.26676
lfemur -72.65 11.5197 -29.6226
ltibia 62.7167
lfoot 14.7505 -5.35882
ltoes -27.9161
398
root 44.1069 15.3235 -5.62289 -64.774 -89.536 83.1673
lowerback 39.8516 0.231184 0.393634
upperback 9.22761 -1.00595 -1.87033
thorax -9.07448 -0.91184 -1.71664
lowerneck 3.88026 0.345462 1.18318
upperneck -29.7079 0.585069 3.37648
head -10.0668 -0.744641 1.02713
rclavicle -2.78299e-015 -2.38542e-014
rhumerus -29.3054 1.13258 -88.6815
rradius 43.5312
rwrist -3.39767
rhand -19.2799 -8.37241
rfingers 7.12502
rthumb 7.03501 -38.2355
lclavicle -2.78299e-015 -2.38542e-014
lhumerus -26.7782 -0.979089 82.2026
lradius 41.4042
lwrist 25.9569
lhand -19.4305 12.71
lfingers 7.12502
lthumb 6.88955 42.5779
rfemur -50.318 -2.19632 18.0748
rtibia 83.0337
rfoot 17.7017 -10.9902
rtoes -7.29071
lfemur -72.4852 11.4431 -29.5408
ltibia 63.2618
lfoot 14.3531 -5.67146
ltoes -28.4909
399
root 43.9963 15.3244 -5.59037 -73.0488 -89.4909 91.4239
lowerback 39.8434 0.25778 0.343487
upperback 9.20915 -0.993178 -1.88199
thorax -9.09196 -0.905057 -1.70817
lowerneck 3.81709 0.343488 1.1956
upperneck -29.6231 0.575882 3.35288
head -10.0229 -0.743931 1.01543
rclavicle 1.31198e-014 9.14409e-015
rhumerus -29.3733 1.04743 -88.6353
rradius 43.5132
rwrist -3.38642
rhand -19.2143 -8.36989
rfingers 7.12502
rthumb 7.09829 -38.2309
lclavicle 1.31198e-014 9.14409e-015
lhumerus -26.7141 -1.0372 82.1966
lradius 41.4946
lwrist 25.9346
lhand -19.3731 12.5183
lfingers 7.12502
lthumb 6.94499 42.3843
rfemur -50.4706 -2.13257 17.715
rtibia 83.5119
rfoot 19.0933 -11.1435
rtoes -6.24278
lfemur -72.2965 11.3593 -29.429
ltibia 63.7753
lfoot 13.9695 -5.99776
ltoes -29.0402
400
root 43.8873 15.3255 -5.55836 -80.1422 -89.4395 98.483
lowerback 39.8614 0.285414 0.309615
upperback 9.19345 -0.974442 -1.89527
thorax -9.11477 -0.896065 -1.71212
lowerneck 3.75256 0.341592 1.2056
upperneck -29.5527 0.562722 3.31652
head -9.98401 -0.74402 1.00032
rclavicle -1.78906e-014 -7.15625e-015
rhumerus -29.4448 0.964212 -88.5903
rradius 43.5264
rwrist -3.38768
rhand -19.1601 -8.37221
rfingers 7.12502
rthumb 7.15066 -38.2314
lclavicle -1.78906e-014 -7.15625e-015
lhumerus -26.6344 -1.10061 82.192
lradius 41.5776
lwrist 25.9207
lhand -19.2637 12.2868
lfingers 7.12502
lthumb 7.05059 42.1494
rfemur -50.7181 -2.07407 17.3693
rtibia 84.0755
rfoot 20.6241 -11.3579
rtoes -5.33473
lfemur -72.0794 11.2788 -29.3042
ltibia 64.2648
lfoot 13.6075 -6.32989
ltoes -29.565
401
root 43.7802 15.3269 -5.52716 -86.1387 -89.3778 104.425
lowerback 39.9143 0.313748 0.284335
upperback 9.17877 -0.953467 -1.91101
thorax -9.1477 -0.886537 -1.72383
lowerneck 3.69447 0.341774 1.20934
upperneck -29.501 0.549868 3.273
head -9.95331 -0.743264 0.984159
rclavicle 8.74653e-015 5.96354e-016
rhumerus -29.5178 0.892448 -88.5518
rradius 43.5665
rwrist -3.39629
rhand -19.1249 -8.37653
rfingers 7.12502
rthumb 7.18455 -38.2346
lclavicle 8.74653e-015 5.96354e-016
lhumerus -26.5439 -1.16653 82.1866
lradius 41.6549
lwrist 25.9237
lhand -19.1199 12.0392
lfingers 7.12502
lthumb 7.18938 41.8971
rfemur -51.0534 -2.02174 17.0344
rtibia 84.713
rfoot 22.292 -11.6299
rtoes -4.48662
lfemur -71.8389 11.2106 -29.1836
ltibia 64.7364
lfoot 13.2807 -6.64963
ltoes -30.0475
402
root 43.6746 15.3286 -5.49696 -91.133 -89.2968 109.349
lowerback 39.9913 0.343843 0.254251
upperback 9.16553 -0.934115 -1.93112
thorax -9.18683 -0.878011 -1.73688
lowerneck 3.65686 0.345369 1.20531
upperneck -29.472 0.53991 3.22244
head -9.93499 -0.740337 0.967109
rclavicle 5.96354e-015 -1.19271e-015
rhumerus -29.5933 0.843033 -88.5234
rradius 43.6317
rwrist -3.4095
rhand -19.1099 -8.38845
rfingers 7.12502
rthumb 7.1991 -38.246
lclavicle 5.96354e-015 -1.19271e-015
lhumerus -26.4501 -1.23016 82.1783
lradius 41.7289
lwrist 25.9513
lhand -18.9624 11.846
lfingers 7.12502
lthumb 7.34148 41.6986
rfemur -51.4693 -1.97687 16.6997
rtibia 85.4052
rfoot 24.0988 -11.8778
rtoes -3.80223
lfemur -71.5837 11.1601 -29.0917
ltibia 65.194
lfoot 12.9946 -6.94332
ltoes -30.4882
403
root 43.5708 15.3305 -5.46809 -94.5401 -89.1933 112.673
lowerback 40.0848 0.37394 0.208162
upperback 9.15489 -0.922407 -1.95342
thorax -9.22843 -0.873087 -1.74073
lowerneck 3.63568 0.352523 1.19878
upperneck -29.4595 0.532866 3.16233
head -9.9259 -0.735314 0.947222
rclavicle 2.0276e-014 3.27995e-014
rhumerus -29.6605 0.828414 -88.5079
rradius 43.7092
rwrist -3.42638
rhand -19.1153 -8.39844
rfingers 7.12502
rthumb 7.19386 -38.2562
lclavicle 2.0276e-014 3.27995e-014
lhumerus -26.3542 -1.28734 82.1669
lradius 41.8004
lwrist 26.0036
lhand -18.8226 11.722
lfingers 7.12502
lthumb 7.47639 41.5699
rfemur -51.9557 -1.94523 16.3615
rtibia 86.1343
rfoot 26.0047 -12.0337
rtoes -3.14079
lfemur -71.3223 11.1253 -29.0426
ltibia 65.6426
lfoot 12.7565 -7.19686
ltoes -30.8671
404
root 43.4688 15.3327 -5.4408 -96.7286 -89.0749 114.761
lowerback 40.1927 0.404266 0.145231
upperback 9.14898 -0.918352 -1.97546
thorax -9.26932 -0.871869 -1.73233
lowerneck 3.63292 0.361825 1.1908
upperneck -29.4574 0.528156 3.09674
head -9.9242 -0.728747 0.925684
rclavicle 6.75868e-015 -2.38542e-015
rhumerus -29.7117 0.854094 -88.5053
rradius 43.7871
rwrist -3.44195
rhand -19.1428 -8.39881
rfingers 7.12502
rthumb 7.16726 -38.2574
lclavicle 6.75868e-015 -2.38542e-015
lhumerus -26.2635 -1.33943 82.1519
lradius 41.8757
lwrist 26.0753
lhand -18.7201 11.6923
lfingers 7.12502
lthumb 7.57533 41.5367
rfemur -52.4887 -1.9203 16.0254
rtibia 86.8777
rfoot 27.9361 -12.053
rtoes -2.44791
lfemur -71.054 11.1097 -29.0343
ltibia 66.0825
lfoot 12.5635 -7.40965
ltoes -31.2041
405
root 43.3683 15.3343 -5.41512 -97.6547 -88.9489 115.58
lowerback 40.292 0.430211 0.0700824
upperback 9.14972 -0.924709 -1.9963
thorax -9.30003 -0.875404 -1.71211
lowerneck 3.64544 0.373192 1.18473
upperneck -29.4573 0.527294 3.02989
head -9.92619 -0.720392 0.903074
rclavicle -1.47101e-014 -3.1408e-014
rhumerus -29.739 0.917096 -88.5153
rradius 43.8535
rwrist -3.45713
rhand -19.1743 -8.39406
rfingers 7.12502
rthumb 7.13694 -38.2537
lclavicle -1.47101e-014 -3.1408e-014
lhumerus -26.1778 -1.38574 82.133
lradius 41.9548
lwrist 26.1484
lhand -18.6935 11.7332
lfingers 7.12502
lthumb 7.60101 41.5766
rfemur -53.0642 -1.91001 15.6979
rtibia 87.6241
rfoot 29.7427 -11.922
rtoes -1.76207
lfemur -70.7939 11.0994 -29.0615
ltibia 66.5188
lfoot 12.408 -7.57817
ltoes -31.5019
406
root 43.2695 15.3355 -5.39115 -97.699 -88.8239 115.515
lowerback 40.3725 0.451364 -0.0107843
upperback 9.15875 -0.938874 -2.01442
thorax -9.31543 -0.882529 -1.68296
lowerneck 3.66604 0.383961 1.18342
upperneck -29.4479 0.528002 2.96667
head -9.92637 -0.711728 0.880605
rclavicle 3.1408e-014 2.88238e-014
rhumerus -29.7372 1.00587 -88.5356
rradius 43.8997
rwrist -3.46265
rhand -19.1996 -8.38591
rfingers 7.12502
rthumb 7.1125 -38.2464
lclavicle 3.1408e-014 2.88238e-014
lhumerus -26.0973 -1.43182 82.1104
lradius 42.0361
lwrist 26.2067
lhand -18.7317 11.7836
lfingers 7.12502
lthumb 7.56412 41.6283
rfemur -53.6706 -1.91534 15.3917
rtibia 88.3601
rfoot 31.179 -11.6614
rtoes -1.07536
lfemur -70.5457 11.0957 -29.1167
ltibia 66.9515
lfoot 12.2821 -7.71455
ltoes -31.7766
